<svg id="Layer_1" data-name="Layer 1" xmlns="http://www.w3.org/2000/svg" xmlns:xlink="http://www.w3.org/1999/xlink" viewBox="0 0 280 300"><defs><style>.cls-1{fill:#6e6f72;}.cls-2{fill:#d22329;}.cls-3{fill:url(#linear-gradient);}.cls-4,.cls-5{fill:#be232f;}.cls-5{opacity:0.35;isolation:isolate;}.cls-6{fill:url(#linear-gradient-2);}.cls-7{fill:url(#linear-gradient-3);}.cls-8{fill:url(#linear-gradient-4);}.cls-9{fill:url(#linear-gradient-5);}.cls-10{fill:url(#linear-gradient-6);}.cls-11{fill:url(#linear-gradient-7);}.cls-12{fill:url(#linear-gradient-8);}.cls-13{fill:url(#linear-gradient-9);}</style><linearGradient id="linear-gradient" x1="83.99" y1="179.26" x2="97.69" y2="183.07" gradientTransform="matrix(1, 0, 0, -1, 0, 302.1)" gradientUnits="userSpaceOnUse"><stop offset="0" stop-color="#f69924"/><stop offset="0.31" stop-color="#f79b24"/><stop offset="0.84" stop-color="#e97927"/></linearGradient><linearGradient id="linear-gradient-2" x1="54.01" y1="117.79" x2="81.87" y2="177.53" gradientTransform="matrix(1, 0, 0, -1, 0, 302.1)" gradientUnits="userSpaceOnUse"><stop offset="0.32" stop-color="#9f2065"/><stop offset="0.63" stop-color="#c92039"/><stop offset="0.75" stop-color="#ce2335"/><stop offset="1" stop-color="#e97927"/></linearGradient><linearGradient id="linear-gradient-3" x1="63.35" y1="122.21" x2="79.95" y2="157.81" gradientTransform="matrix(1, 0, 0, -1, 0, 302.1)" gradientUnits="userSpaceOnUse"><stop offset="0" stop-color="#282762"/><stop offset="0.1" stop-color="#66308d"/><stop offset="0.79" stop-color="#9f2065"/><stop offset="0.95" stop-color="#cd2032"/></linearGradient><linearGradient id="linear-gradient-4" x1="55.02" y1="121.4" x2="82.88" y2="181.15" xlink:href="#linear-gradient-2"/><linearGradient id="linear-gradient-5" x1="57.86" y1="125.38" x2="72.5" y2="156.78" xlink:href="#linear-gradient-3"/><linearGradient id="linear-gradient-6" x1="61.2" y1="118.52" x2="89.06" y2="178.26" xlink:href="#linear-gradient-2"/><linearGradient id="linear-gradient-7" x1="59.15" y1="114.96" x2="87.01" y2="174.71" xlink:href="#linear-gradient-2"/><linearGradient id="linear-gradient-8" x1="63.04" y1="117.66" x2="90.9" y2="177.41" xlink:href="#linear-gradient-2"/><linearGradient id="linear-gradient-9" x1="62.83" y1="117.76" x2="90.69" y2="177.51" xlink:href="#linear-gradient-2"/></defs><title>Apache Logo</title><path class="cls-1" d="M220.16,136.48a1.72,1.72,0,0,1,.51,1.25,1.74,1.74,0,0,1-.51,1.26,1.68,1.68,0,0,1-1.26.52,1.77,1.77,0,0,1-1.26-3,1.67,1.67,0,0,1,1.26-.53,1.75,1.75,0,0,1,1.26.52Zm-.15,2.36a1.56,1.56,0,0,0,.45-1.1,1.54,1.54,0,0,0-.45-1.1,1.49,1.49,0,0,0-1.1-.46,1.46,1.46,0,0,0-1.1.46,1.48,1.48,0,0,0-.45,1.1,1.53,1.53,0,0,0,.44,1.1,1.49,1.49,0,0,0,1.1.46,1.53,1.53,0,0,0,1.11-.46Zm-.25-1.45a.56.56,0,0,1-.42.6l.51.69h-.41L219,138h-.42v.64h-.34v-1.92h.72a1.1,1.1,0,0,1,.63.15.57.57,0,0,1,.19.48Zm-.43.27a.31.31,0,0,0,.1-.27.33.33,0,0,0-.1-.26.67.67,0,0,0-.37-.07h-.4v.69H219A.59.59,0,0,0,219.33,137.66ZM100.15,128.6v3.52H99.7V128.6H98.42v-.44h3v.44Zm6.31,3.52v-1.74h-2.38v1.74h-.45v-4h.46V130h2.38v-1.78h.45v4h-.46Zm3.61-3.52v1.3h2v.44h-2v1.36h2.3v.43h-2.76v-4h2.69v.45h-2.23Z"/><path class="cls-2" d="M95,159.22l9.44-22.58h1.82l9.44,22.58h-2.38l-2.93-7.06H100.22l-2.9,7.06Zm10.37-20-4.65,11.16h9.17l-4.52-11.16Zm12.77,20V136.64h9.35c3.88,0,6.68,3.59,6.68,7.09,0,3.69-2.6,7.16-6.48,7.16h-7.35v8.33Zm2.2-10.3h7.21c2.67,0,4.39-2.45,4.39-5.19a4.9,4.9,0,0,0-4.58-5.12h-7v10.31Zm12.6,10.3,9.45-22.58h1.81l9.45,22.58h-2.39l-2.93-7.06H138.15l-2.89,7.06Zm10.37-20-4.65,11.16h9.16Zm21-2.74a8.87,8.87,0,0,1,8.33,4.93l-1.78,1.08a7.1,7.1,0,0,0-6.68-4c-5.41,0-8.36,4.83-8.36,9.38,0,5,3.65,9.52,8.46,9.52a7.71,7.71,0,0,0,7-4.2l1.85.95c-1.47,3.37-5.47,5.25-8.94,5.25-6.2,0-10.56-5.92-10.56-11.64,0-5.44,3.91-11.26,10.71-11.26Zm29.7.13v22.58h-2.23V148.66H178.38v10.56h-2.19V136.64h2.19v10.05h13.39V136.64Zm20.27,20.61v2H199.1V136.64H214v2H201.29v8.14h11.07v1.88H201.29v8.62Z"/><path class="cls-1" d="M97.08,164a2.81,2.81,0,0,1,.7.32l-.24.51a2,2,0,0,0-.65-.3,2.25,2.25,0,0,0-.66-.1,1.43,1.43,0,0,0-.74.16.53.53,0,0,0-.28.47.63.63,0,0,0,.16.43,1.1,1.1,0,0,0,.38.27l.64.21.78.3a1.25,1.25,0,0,1,.51.4,1.08,1.08,0,0,1,.21.7,1.17,1.17,0,0,1-.21.69,1.37,1.37,0,0,1-.61.46,2.29,2.29,0,0,1-.9.17,2.62,2.62,0,0,1-1-.2,3.16,3.16,0,0,1-.83-.53l.24-.49a2.57,2.57,0,0,0,.76.5,2.13,2.13,0,0,0,.83.17,1.4,1.4,0,0,0,.82-.2.61.61,0,0,0,.3-.54.63.63,0,0,0-.16-.44,1.13,1.13,0,0,0-.39-.27,5.81,5.81,0,0,0-.63-.21,6.55,6.55,0,0,1-.78-.28,1.25,1.25,0,0,1-.51-.4,1.05,1.05,0,0,1-.21-.69,1.16,1.16,0,0,1,.2-.65,1.36,1.36,0,0,1,.58-.43,2.33,2.33,0,0,1,.87-.15,2.86,2.86,0,0,1,.82.12Zm7.07.21a2.62,2.62,0,0,1,.91.87,2.34,2.34,0,0,1,.33,1.21,2.23,2.23,0,0,1-.33,1.21,2.48,2.48,0,0,1-.91.88,2.58,2.58,0,0,1-1.25.32,2.62,2.62,0,0,1-1.26-.32,2.56,2.56,0,0,1-.91-.88,2.29,2.29,0,0,1-.33-1.21,2.23,2.23,0,0,1,.33-1.21,2.37,2.37,0,0,1,.91-.87,2.62,2.62,0,0,1,2.51,0Zm-2.22.45a2,2,0,0,0-.71.68,1.75,1.75,0,0,0-.27.95,1.78,1.78,0,0,0,.27,1,2,2,0,0,0,3.35,0,1.86,1.86,0,0,0,.26-1,1.77,1.77,0,0,0-.26-.95,2,2,0,0,0-.7-.68,2,2,0,0,0-1-.25,1.92,1.92,0,0,0-1,.25Zm6.89-.23v1.67h2.23v.53h-2.23v2h-.54V163.9h3v.53Zm6.92,0v4.24h-.55v-4.24h-1.55v-.53h3.65v.53h-1.55Zm8.6,4.24-1.29-4-1.3,4h-.56l-1.6-4.77h.59l1.31,4.14,1.29-4.13h.55l1.31,4.14,1.29-4.14h.56l-1.59,4.77h-.56Zm4.87-1.2-.53,1.2h-.58l2.14-4.77h.57l2.13,4.77h-.59l-.53-1.2h-2.61Zm1.3-2.94L129.45,167h2.14l-1.08-2.42Zm7.16,2.63h-1.58v1.51h-.54V163.9h1.81a2.07,2.07,0,0,1,1.38.42,1.48,1.48,0,0,1,.49,1.19,1.69,1.69,0,0,1-.27,1,1.46,1.46,0,0,1-.79.56l1.11,1.62h-.62l-1-1.51Zm.68-.8a1,1,0,0,0,.35-.83,1,1,0,0,0-.35-.82,1.62,1.62,0,0,0-1-.28h-1.26v2.22h1.26a1.58,1.58,0,0,0,1-.29Zm4.46-1.93V166h2.41v.53h-2.41v1.63h2.78v.52h-3.33V163.9h3.23v.53Zm10.39,0v1.67h2.23v.53H153.2v2h-.54V163.9h3v.53Zm8.52-.22a2.62,2.62,0,0,1,.91.87,2.34,2.34,0,0,1,.33,1.21,2.32,2.32,0,0,1-.33,1.21,2.56,2.56,0,0,1-.91.88,2.58,2.58,0,0,1-1.25.32,2.62,2.62,0,0,1-1.26-.32,2.56,2.56,0,0,1-.91-.88,2.29,2.29,0,0,1-.33-1.21,2.23,2.23,0,0,1,.33-1.21,2.37,2.37,0,0,1,.91-.87,2.62,2.62,0,0,1,2.51,0Zm-2.22.45a2,2,0,0,0-.71.68,1.75,1.75,0,0,0-.27.95,1.78,1.78,0,0,0,.27,1,2,2,0,0,0,3.35,0,1.77,1.77,0,0,0,.26-1,1.68,1.68,0,0,0-.26-.95,1.9,1.9,0,0,0-.7-.68,2,2,0,0,0-1.94,0Zm9.72,3.51a2,2,0,0,1-1.46.53,2,2,0,0,1-1.48-.53,2,2,0,0,1-.53-1.46V163.9h.54v2.8a1.34,1.34,0,0,0,1.47,1.46,1.31,1.31,0,0,0,1.44-1.45V163.9h.55v2.81a2,2,0,0,1-.53,1.46Zm7.13.5-2.86-3.83v3.83h-.55V163.9h.57l2.86,3.84V163.9h.54v4.77Zm7-4.45a2.33,2.33,0,0,1,1.2,2.07,2.32,2.32,0,0,1-1.21,2.07,2.56,2.56,0,0,1-1.26.31h-1.9V163.9h1.93a2.46,2.46,0,0,1,1.24.32Zm-2.63,3.93h1.39a2,2,0,0,0,1-.24,1.73,1.73,0,0,0,.68-.66,1.84,1.84,0,0,0,.26-1,1.82,1.82,0,0,0-.26-.94,1.78,1.78,0,0,0-.69-.67,2,2,0,0,0-1-.25h-1.37v3.72Zm6.94-.69-.54,1.2h-.58l2.15-4.77h.56l2.13,4.77h-.58l-.54-1.2Zm1.29-2.94-1.06,2.41H190L189,164.52Zm6-.1v4.24h-.54v-4.24h-1.55v-.52h3.66v.52Zm4.19,4.24V163.9h.54v4.77h-.54Zm7.19-4.45a2.53,2.53,0,0,1,.91.87,2.25,2.25,0,0,1,.33,1.21,2.23,2.23,0,0,1-.33,1.21,2.4,2.4,0,0,1-.91.88,2.58,2.58,0,0,1-1.25.32,2.65,2.65,0,0,1-1.26-.32,2.45,2.45,0,0,1-.9-.88,2.21,2.21,0,0,1-.34-1.21,2.24,2.24,0,0,1,.34-1.21,2.35,2.35,0,0,1,.9-.87,2.56,2.56,0,0,1,1.26-.32,2.53,2.53,0,0,1,1.25.32Zm-2.22.45a2.1,2.1,0,0,0-.71.68,1.84,1.84,0,0,0-.27.95,1.78,1.78,0,0,0,.27,1,1.94,1.94,0,0,0,1.68.93,1.87,1.87,0,0,0,1-.25,2,2,0,0,0,.71-.68,1.87,1.87,0,0,0,0-1.9,2,2,0,0,0-.71-.68,1.91,1.91,0,0,0-1-.25,2,2,0,0,0-1,.25Zm9.76,4L211,164.84v3.83h-.55V163.9H211l2.86,3.84V163.9h.54v4.77Z"/><path class="cls-3" d="M87.17,117.6a24.08,24.08,0,0,0-4.76,4.81l1.87,3.52a45.54,45.54,0,0,1,4-5l.16-.17-.16.17A40.76,40.76,0,0,0,84.52,126a71.78,71.78,0,0,0,7.27-.9c.72-4-.7-5.84-.7-5.84S89.28,116.35,87.17,117.6Z"/><path class="cls-4" d="M80.89,147.24l-.74.13.38-.06.37-.07Z"/><path class="cls-5" d="M80.89,147.24l-.74.13.38-.06.37-.07Z"/><path class="cls-4" d="M81.51,144.15l.12,0,.46-.08-.58.1Z"/><path class="cls-5" d="M81.51,144.15l.12,0,.46-.08-.58.1Z"/><path class="cls-6" d="M78.76,135.05l1.73-3.11,1.83-3.05.11-.17,1.84-2.78-1.87-3.53-.42.52-1.67,2.16-2,2.76-1.89,2.8-1.68,2.64,2.44,4.81,1.57-3Z"/><path class="cls-7" d="M67.68,162.13l-1.12,3.14-.85,2.45a5,5,0,0,1,1.84,2.16,3.91,3.91,0,0,0-1.28-2.69c3.54.15,6.58-.74,8.16-3.32a7.24,7.24,0,0,0,.38-.73c-.71.91-1.6,1.29-3.28,1.2h0a9.51,9.51,0,0,0,4.79-3.91c.27-.44.53-.9.76-1.37a7.68,7.68,0,0,1-7.26,2.36l-2,.21c0,.17-.12.33-.18.51Z"/><path class="cls-8" d="M68.59,157.73l1.31-3.34,1.33-3.24,1.38-3.26,1.47-3.32,1.51-3.24.56-1.16,1-2,.06-.11-2.44-4.8-.12.19-1.68,2.84-1.64,3L70,141.89l-.25.52-1.44,3.15L67,148.85l-.69,2-.48,1.62-.93,3.81,2.44,4.84,1-2.63.29-.74Z"/><path class="cls-9" d="M64.84,156.44a36.74,36.74,0,0,0-.64,4.61v.16a9.31,9.31,0,0,0-2.8-2.4,13.6,13.6,0,0,1,2.74,6.29,6.16,6.16,0,0,1-3.1-.53,6.23,6.23,0,0,0,2.65,1.61A7.42,7.42,0,0,0,60,168a7.87,7.87,0,0,1,4.35-.8c-1.68,4.72-3.36,9.95-5,15.5a1.47,1.47,0,0,0,1-1c.3-1,2.28-7.6,5.39-16.26l.34-1,1-2.79.24-.64v0l-2.45-4.83,0,.18Z"/><path class="cls-10" d="M77.56,138.5l-.21.43-.64,1.33L76,141.77l-.36.78L74.53,145l-1.4,3.23-1.38,3.32-1.34,3.35-1.22,3.17-1.33,3.56,2-.21-.12,0a14.1,14.1,0,0,0,7.51-4.22,18.66,18.66,0,0,0,2.55-3.56,28.11,28.11,0,0,0,1.65-3.43c.46-1.11.89-2.3,1.32-3.59a7.6,7.6,0,0,1-1.85.64l-.36.06-.38.06a8.57,8.57,0,0,0,4.59-4.48,7.79,7.79,0,0,1-2.64,1.16l-.47.08-.12,0h0a8.78,8.78,0,0,0,2-1.09c.13-.09.24-.19.35-.28a5.32,5.32,0,0,0,.48-.47c.1-.1.2-.21.29-.32a7.59,7.59,0,0,0,.62-.84c.05-.1.11-.19.17-.29l.21-.41c.27-.54.52-1.09.74-1.65.1-.24.19-.46.26-.67l.08-.24c.08-.23.14-.44.19-.62a4.54,4.54,0,0,0,.15-.64,1.67,1.67,0,0,1-.26.17,9.2,9.2,0,0,1-2.71.93l1.81-.2-1.81.2h0l-.28.05,0,0-6.18.68,0,.06Z"/><path class="cls-11" d="M84.52,126l-1.8,2.88-.1.18-1.77,3.1-1.69,3.14-1.57,3.12,6.18-.67a7.5,7.5,0,0,0,3.39-2.67l.62-.93L89.6,131,91,128l.55-1.64.26-1.22a71.61,71.61,0,0,1-7.26.9Z"/><path class="cls-4" d="M80.53,147.31l-.38.06Z"/><path class="cls-5" d="M80.53,147.31l-.38.06Z"/><path class="cls-12" d="M80.53,147.31l-.38.06Z"/><path class="cls-4" d="M81.51,144.16l.12,0Z"/><path class="cls-5" d="M81.51,144.16l.12,0Z"/><path class="cls-13" d="M81.51,144.16l.12,0Z"/></svg>