<?xml version="1.0" encoding="UTF-8"?><svg height="87" viewBox="0 0 80.00444 87" width="80.00444" xmlns="http://www.w3.org/2000/svg" xmlns:xlink="http://www.w3.org/1999/xlink"><linearGradient id="a" gradientTransform="matrix(1 0 0 -1 0 132)" gradientUnits="userSpaceOnUse" x1="21.18015" x2="73.34935" y1="51.81485" y2="83.30176"><stop offset="0" stop-color="#fcee39"/><stop offset="1" stop-color="#f37b3d"/></linearGradient><linearGradient id="b" gradientTransform="matrix(1 0 0 -1 0 132)" gradientUnits="userSpaceOnUse" x1="32.20949" x2="79.82581" y1="127.41858" y2="85.73126"><stop offset="0" stop-color="#ef5a6b"/><stop offset=".57" stop-color="#f26f4e"/><stop offset="1" stop-color="#f37b3d"/></linearGradient><linearGradient id="c" gradientTransform="matrix(1 0 0 -1 0 132)" gradientUnits="userSpaceOnUse" x1="35.23477" x2="7.01447" y1="89.63055" y2="107.25452"><stop offset="0" stop-color="#7c59a4"/><stop offset=".385" stop-color="#af4c92"/><stop offset=".765" stop-color="#dc4183"/><stop offset=".957" stop-color="#ed3d7d"/></linearGradient><linearGradient id="d" gradientTransform="matrix(1 0 0 -1 0 132)" gradientUnits="userSpaceOnUse" x1="34.724" x2="7.17311" y1="129.54786" y2="106.79341"><stop offset="0" stop-color="#ef5a6b"/><stop offset=".364" stop-color="#ee4e72"/><stop offset="1" stop-color="#ed3d7d"/></linearGradient><path d="m78.9353 47.778a3.07327 3.07327 0 0 0 .99815-2.12938 3.11373 3.11373 0 0 0 -2.9279-3.26062 3.24987 3.24987 0 0 0 -2.19593.732l-55.7632 30.54333a6.53647 6.53647 0 0 0 -3.12753 2.72827 6.69833 6.69833 0 0 0 2.39555 9.2495 6.8452 6.8452 0 0 0 7.12012-.13308c.13309-.13309.33272-.19963.46581-.33272l51.9037-36.46568a8.45356 8.45356 0 0 0 1.13123-.93162z" fill="url(#a)"/><path d="m79.06839 43.31962-42.45456-41.65604a5.13357 5.13357 0 0 0 -8.91683 3.46025 5.09654 5.09654 0 0 0 1.39741 3.52679 7.04747 7.04747 0 0 0 .79852.66543l44.85016 38.39543a3.42748 3.42748 0 0 0 1.99629.86506 3.11373 3.11373 0 0 0 3.26062-2.9279 3.32522 3.32522 0 0 0 -.93161-2.32902z" fill="url(#b)"/><path d="m38.01123 39.59321c-.06654 0-26.218-20.6284-26.75036-20.96111l-1.19778-.59889a7.44676 7.44676 0 0 0 -6.52124 13.30864 5.86849 5.86849 0 0 0 1.33087.59889c.26617.13308 30.21061 12.51012 30.21061 12.51012a2.85537 2.85537 0 0 0 2.9279-4.85765z" fill="url(#c)"/><path d="m32.82086 0a5.42133 5.42133 0 0 0 -3.061.99815l-26.48418 17.83358c-.06654.06654-.13308.06654-.13308.13308h-.06655a7.4162 7.4162 0 0 0 1.79667 12.97593 7.3 7.3 0 0 0 6.92049-.93161 6.21809 6.21809 0 0 0 1.19779-1.06469l23.02394-20.76144a5.1394 5.1394 0 0 0 1.99629-4.05913 5.18342 5.18342 0 0 0 -5.19037-5.12387z" fill="url(#d)"/><path d="m23.039 24.88716h33.937v33.937h-33.937z"/><g fill="#fff"><path d="m25.96692 52.43605h12.70975v2.12938h-12.70975z"/><path d="m25.83383 33.804.99815-.93161a1.133 1.133 0 0 0 .86506.53235q.59889 0 .59889-.79852v-3.52684h1.53049v3.52679a1.86017 1.86017 0 0 1 -2.06284 2.06283 2.01358 2.01358 0 0 1 -1.92975-.865z"/><path d="m30.15914 29.14592h4.45839v1.26432h-2.9279v.86507h2.66173v1.19777h-2.66173v.86506h2.99444v1.33086h-4.45839z"/><path d="m36.61383 30.47679h-1.66358v-1.33087h4.85765v1.33087h-1.66358v4.19221h-1.53049z"/><path d="m25.96692 35.93333h2.86135a2.46369 2.46369 0 0 1 1.5305.4658 1.31643 1.31643 0 0 1 .33271.93161 1.30116 1.30116 0 0 1 -.86506 1.26432 1.296 1.296 0 0 1 1.06469 1.33086c0 .93161-.79852 1.5305-2.06284 1.5305h-2.86135zm3.19408 1.73012c0-.33271-.26618-.4658-.66543-.4658h-.99815v.99815h.9316c.4658-.06654.73198-.19963.73198-.53235zm-.53235 1.597h-1.19778v.99815h1.19777c.46581 0 .732-.19963.732-.53235s-.2662-.46576-.732-.46576z"/><path d="m31.15728 35.93333h2.59519a2.33876 2.33876 0 0 1 1.79667.59889 1.6566 1.6566 0 0 1 .4658 1.26432 1.83694 1.83694 0 0 1 -1.13123 1.73012l1.33086 1.92976h-1.73012l-1.13124-1.66358h-.66543v1.66358h-1.53049zm2.52865 2.66173c.53234 0 .79852-.26618.79852-.66543 0-.46581-.33272-.66544-.79852-.66544h-.99815v1.33087z"/><path d="m37.81161 35.93333h1.46395l2.329 5.58963h-1.66356l-.39926-.99815h-2.12939l-.39926.99815h-1.597zm1.33086 3.32716-.59889-1.53049-.59889 1.53049z"/><path d="m41.8042 35.93333h1.53049v5.52309h-1.53049z"/><path d="m43.734 35.93333h1.39741l2.26247 2.9279v-2.9279h1.53049v5.52309h-1.33091l-2.329-2.99445v3.061h-1.53046z"/><path d="m49.05741 40.6579.86506-.99815a2.62327 2.62327 0 0 0 1.79666.66543c.39926 0 .66544-.13309.66544-.39926s-.19964-.33271-.93161-.53234c-1.19778-.26618-2.06284-.59889-2.06284-1.73013a1.88911 1.88911 0 0 1 2.12938-1.79666 3.54722 3.54722 0 0 1 2.26247.732l-.79851 1.06469a3.0301 3.0301 0 0 0 -1.5305-.53234c-.39926 0-.53235.13308-.53235.33271 0 .26618.19963.33272.93161.53235 1.26432.26617 2.06284.66543 2.06284 1.73012 0 1.13124-.86507 1.79667-2.26247 1.79667a3.5224 3.5224 0 0 1 -2.59518-.86509z"/></g></svg>